<?xml version="1.0" standalone="no"?>
<!DOCTYPE svg PUBLIC "-//W3C//DTD SVG 20010904//EN"
 "http://www.w3.org/TR/2001/REC-SVG-20010904/DTD/svg10.dtd">
<svg version="1.0" xmlns="http://www.w3.org/2000/svg"
 width="700.000000pt" height="700.000000pt" viewBox="0 0 700.000000 700.000000"
 preserveAspectRatio="xMidYMid meet">
<metadata>
Created by potrace 1.11, written by Peter Selinger 2001-2013
</metadata>
<g transform="translate(0.000000,700.000000) scale(0.100000,-0.100000)"
fill="#000000" stroke="none">
<path d="M3298 6995 c-2 -1 -45 -5 -97 -9 -51 -3 -96 -8 -100 -10 -3 -2 -40
-7 -80 -10 -41 -4 -78 -9 -81 -11 -3 -2 -24 -6 -46 -9 -51 -8 -81 -14 -102
-20 -9 -3 -33 -8 -52 -11 -96 -16 -424 -116 -527 -161 -18 -8 -48 -21 -67 -29
-19 -8 -37 -15 -40 -15 -14 0 -305 -149 -381 -195 -78 -47 -210 -132 -230
-147 -5 -5 -59 -45 -120 -90 -60 -46 -112 -85 -115 -89 -3 -4 -25 -23 -50 -44
-71 -58 -236 -221 -326 -323 -316 -355 -553 -766 -705 -1223 -26 -81 -51 -158
-53 -170 -3 -13 -13 -51 -21 -84 -9 -33 -18 -71 -21 -85 -2 -14 -9 -45 -14
-70 -12 -59 -29 -154 -35 -210 -4 -25 -8 -61 -11 -80 -13 -89 -18 -212 -18
-415 0 -242 5 -313 39 -540 13 -84 47 -244 72 -335 14 -52 28 -105 30 -118 7
-28 18 -35 40 -24 184 95 412 121 608 71 198 -50 385 -182 502 -354 l40 -60
1394 1 c1309 0 1398 1 1454 18 147 44 269 175 310 331 13 52 19 253 15 508 l0
27 -434 0 -435 0 342 346 c188 190 482 487 653 661 l311 316 356 -359 c195
-197 488 -494 650 -659 l296 -300 -432 -5 -431 -5 -2 -250 c-1 -254 -4 -298
-29 -414 -54 -252 -204 -512 -411 -711 -236 -227 -469 -342 -769 -380 -33 -4
-685 -7 -1448 -7 -763 0 -1389 -2 -1391 -4 -1 -2 -23 -33 -48 -69 -43 -61
-107 -128 -171 -182 l-29 -24 69 -61 c420 -376 943 -658 1463 -788 58 -14 121
-30 140 -35 46 -12 213 -40 270 -46 25 -3 56 -7 70 -9 74 -13 217 -20 400 -20
267 0 381 10 605 50 178 32 178 32 285 61 822 220 1523 716 2001 1414 270 394
470 882 553 1350 60 337 68 792 20 1100 -3 19 -7 49 -9 65 -10 71 -57 287 -81
370 -14 49 -27 95 -28 102 -4 24 -13 23 -77 -6 -235 -106 -526 -98 -750 21
-119 64 -249 180 -320 288 l-37 55 -1393 -1 c-1288 0 -1398 -1 -1451 -17 -76
-23 -122 -51 -184 -112 -75 -74 -120 -158 -140 -259 -4 -19 -6 -237 -5 -419
l1 -77 426 0 c235 1 428 -1 431 -4 2 -2 -162 -171 -364 -376 -202 -204 -495
-500 -649 -657 l-281 -286 -356 359 c-195 197 -488 494 -650 659 l-296 300
432 5 432 5 1 250 c1 241 3 272 25 397 42 245 206 528 426 738 163 156 332
259 523 319 185 59 158 58 1678 58 766 0 1394 2 1396 4 1 2 23 34 49 71 26 37
80 97 121 134 l74 68 -23 22 c-51 47 -224 192 -280 235 -190 145 -526 343
-696 409 -29 12 -71 29 -93 39 -105 47 -415 148 -506 165 -14 2 -56 11 -95 19
-38 9 -90 18 -115 22 -25 3 -52 8 -60 10 -22 6 -67 13 -135 20 -33 4 -78 9
-100 11 -47 6 -502 14 -507 9z"/>
<path d="M6110 5743 c-163 -126 -246 -329 -211 -518 19 -103 95 -239 166 -296
11 -9 30 -26 43 -37 12 -11 55 -36 95 -56 104 -51 200 -60 342 -31 32 7 153
63 160 75 4 7 -16 53 -78 180 -47 97 -174 310 -246 415 -80 116 -219 295 -230
295 -3 0 -22 -12 -41 -27z"/>
<path d="M530 2208 c-31 -4 -78 -14 -105 -24 -50 -16 -135 -61 -135 -71 0 -15
120 -253 177 -353 101 -176 206 -325 370 -529 6 -9 56 25 103 69 168 159 215
396 120 599 -31 66 -86 141 -127 174 -13 10 -29 24 -36 31 -19 19 -118 72
-157 85 -59 18 -152 27 -210 19z"/>
</g>
</svg>
