<?xml version="1.0" encoding="UTF-8" standalone="no"?>
<!-- Created with Inkscape (http://www.inkscape.org/) -->

<svg
   xmlns:dc="http://purl.org/dc/elements/1.1/"
   xmlns:cc="http://creativecommons.org/ns#"
   xmlns:rdf="http://www.w3.org/1999/02/22-rdf-syntax-ns#"
   xmlns:svg="http://www.w3.org/2000/svg"
   xmlns="http://www.w3.org/2000/svg"
   xmlns:sodipodi="http://sodipodi.sourceforge.net/DTD/sodipodi-0.dtd"
   xmlns:inkscape="http://www.inkscape.org/namespaces/inkscape"
   width="260"
   height="260"
   viewBox="0 0 260 260"
   id="svg4159"
   version="1.1"
   inkscape:version="0.91 r13725"
   sodipodi:docname="logo.svg">
  <defs
     id="defs4161" />
  <sodipodi:namedview
     id="base"
     pagecolor="#ffffff"
     bordercolor="#666666"
     borderopacity="1.0"
     inkscape:pageopacity="0.0"
     inkscape:pageshadow="2"
     inkscape:zoom="0.35"
     inkscape:cx="-473.57143"
     inkscape:cy="405.71429"
     inkscape:document-units="px"
     inkscape:current-layer="layer1"
     showgrid="false"
     units="px"
     inkscape:window-width="1920"
     inkscape:window-height="1017"
     inkscape:window-x="-8"
     inkscape:window-y="-8"
     inkscape:window-maximized="1" />
  <metadata
     id="metadata4164">
    <rdf:RDF>
      <cc:Work
         rdf:about="">
        <dc:format>image/svg+xml</dc:format>
        <dc:type
           rdf:resource="http://purl.org/dc/dcmitype/StillImage" />
        <dc:title></dc:title>
      </cc:Work>
    </rdf:RDF>
  </metadata>
  <g
     inkscape:label="Layer 1"
     inkscape:groupmode="layer"
     id="layer1"
     transform="translate(0,-792.36213)">
    <path
       style="fill:#000000"
       d="M 129.99999,792.3621 A 129.99953,129.99956 0 0 0 0,922.36211 129.99953,129.99956 0 0 0 5.9521445,961.18067 c 4.6772455,-2.64234 10.0740565,-4.151 15.8432995,-4.151 11.98877,0 22.356254,6.72453 27.864537,16.40127 l 101.738009,0 c 4.37451,-0.16436 7.93836,-1.64022 11.17908,-5.08448 3.23978,-3.44417 4.69764,-6.88843 5.02171,-11.31679 l 0,-16.40126 -32.40064,0 48.59957,-49.20389 48.60143,49.20389 -32.40065,0 0,16.40126 c -0.48285,12.79303 -5.67078,23.94601 -15.22857,33.78673 -9.55778,9.8408 -20.735,14.9252 -33.37193,15.4171 l -101.738009,0 c -2.292627,4.0284 -5.464655,7.5335 -9.229084,10.2664 A 129.99953,129.99956 0 0 0 129.99999,1052.3621 129.99953,129.99956 0 0 0 260,922.36211 129.99953,129.99956 0 0 0 253.93921,883.6079 c -4.65121,2.60334 -10.01093,4.08664 -15.73464,4.08664 -11.98786,0 -22.35629,-6.72452 -27.86457,-16.40126 l -101.73801,0 c -4.37357,0.16436 -7.93836,1.64022 -11.178144,5.08448 -3.239784,3.44417 -4.696712,6.88843 -5.019854,11.31678 l 0,16.40127 32.398788,0 -48.599577,49.20389 -48.601451,-49.20389 32.400665,0 0,-16.40127 c 0.482856,-12.79302 5.669858,-23.94591 15.228574,-33.78673 9.557786,-9.84081 20.735001,-14.92512 33.370999,-15.41706 l 101.73801,0 c 2.27778,-4.00029 5.42192,-7.48318 9.152,-10.20798 A 129.99953,129.99956 0 0 0 129.99999,792.3621 Z m 98.61244,45.52442 c -5.82493,3.44584 -9.84936,9.84917 -9.84936,17.00548 0,10.66085 8.9115,19.68118 19.4415,19.68118 4.069,0 7.88729,-1.33306 11.05186,-3.58002 a 129.99953,129.99956 0 0 0 -20.644,-33.10664 z M 21.795444,970.15104 c -4.108046,0 -7.958785,1.35924 -11.141027,3.64632 a 129.99953,129.99956 0 0 0 20.642161,33.09484 c 5.874154,-3.4323 9.94033,-9.86588 9.94033,-17.05999 0,-10.66075 -8.910562,-19.68117 -19.441464,-19.68117 z"
       id="path3360-8"
       inkscape:connector-curvature="0" />
  </g>
</svg>
