<?xml version="1.0" standalone="no"?>
<!DOCTYPE svg PUBLIC "-//W3C//DTD SVG 20010904//EN"
 "http://www.w3.org/TR/2001/REC-SVG-20010904/DTD/svg10.dtd">
<svg version="1.0" xmlns="http://www.w3.org/2000/svg"
 width="260.000000pt" height="260.000000pt" viewBox="0 0 260.000000 260.000000"
 preserveAspectRatio="xMidYMid meet">
<metadata>
Created by potrace 1.11, written by Peter Selinger 2001-2013
</metadata>
<g transform="translate(0.000000,260.000000) scale(0.100000,-0.100000)"
fill="#000000" stroke="none">
<path d="M1150 2593 c-439 -62 -788 -301 -997 -683 -149 -271 -192 -655 -108
-948 l16 -52 27 14 c121 62 306 15 383 -98 l24 -36 522 0 c345 0 531 4 550 11
15 6 39 20 51 32 45 41 55 76 57 183 l1 101 -149 -1 c-82 -1 -153 1 -157 4 -5
3 98 114 229 247 l238 242 243 -245 c134 -134 240 -244 235 -245 -6 0 -79 -1
-162 -1 l-153 -1 0 -92 c0 -122 -13 -185 -55 -271 -44 -91 -148 -197 -231
-238 -109 -54 -126 -55 -693 -56 -518 0 -525 -1 -539 -21 -8 -11 -28 -35 -45
-52 l-30 -31 44 -39 c96 -86 268 -188 399 -236 159 -58 297 -80 485 -76 574
12 1062 394 1219 955 9 30 18 73 22 95 3 22 10 60 14 85 21 111 1 356 -41 513
-10 36 -10 37 -37 23 -109 -55 -256 -28 -351 65 -28 28 -51 54 -51 60 0 13
-1040 12 -1077 -2 -15 -6 -39 -20 -51 -32 -44 -41 -55 -75 -57 -182 l-2 -102
150 1 c82 1 153 -1 157 -4 5 -3 -98 -114 -229 -247 l-238 -242 -241 243 c-133
134 -242 245 -242 247 0 2 72 4 160 3 l160 0 0 101 c0 59 6 126 16 160 41 160
180 312 339 371 46 17 93 19 599 22 540 3 550 3 564 23 8 12 28 35 45 52 l30
31 -44 38 c-175 152 -419 265 -647 301 -84 13 -289 19 -352 10z"/>
<path d="M2237 2100 c-72 -85 -60 -205 29 -278 56 -46 158 -55 209 -18 17 12
16 17 -20 87 -55 108 -154 249 -175 249 -5 0 -24 -18 -43 -40z"/>
<path d="M143 805 c-18 -8 -33 -18 -33 -22 0 -28 125 -237 181 -302 24 -29 37
-24 83 32 53 67 47 169 -16 248 -42 52 -148 74 -215 44z"/>
</g>
</svg>
